<svg xmlns="http://www.w3.org/2000/svg" viewBox="0 0 1744 1744" fill="none" shape-rendering="auto"><metadata xmlns:rdf="http://www.w3.org/1999/02/22-rdf-syntax-ns#" xmlns:xsi="http://www.w3.org/2001/XMLSchema-instance" xmlns:dc="http://purl.org/dc/elements/1.1/" xmlns:dcterms="http://purl.org/dc/terms/"><rdf:RDF><rdf:Description><dc:title>Notionists</dc:title><dc:creator>Zoish</dc:creator><dc:source xsi:type="dcterms:URI">https://heyzoish.gumroad.com/l/notionists</dc:source><dcterms:license xsi:type="dcterms:URI">https://creativecommons.org/publicdomain/zero/1.0/</dcterms:license><dc:rights>Remix of „Notionists” (https://heyzoish.gumroad.com/l/notionists) by „Zoish”, licensed under „CC0 1.0” (https://creativecommons.org/publicdomain/zero/1.0/)</dc:rights></rdf:Description></rdf:RDF></metadata><mask id="viewboxMask"><rect width="1744" height="1744" rx="0" ry="0" x="0" y="0" fill="#fff" /></mask><g mask="url(#viewboxMask)"><g transform="translate(531 487)"><path d="M554 727.7c-99.2 297-363.8 388.6-503.7 19.8-19.3-50.7 31-69.5 66.2-91.9 24.1-15.3 36.8-28.5 35.3-42.2-7-64.4-36.9-243.8-36.9-243.8l-3-5.8s.7-1.6-2.2 1.2c-3 3-9.9 34.2-37 34.2-24.5 0-49.2-10.9-61-86.3C7.2 285.6 9.6 214 40 201c12.5-5.3 24-7.2 35.2-.8 11.3 6.4-13-22 112-126C268.4 6.4 396.7-3.5 448.5 8 500.3 19.5 552 44.8 574.9 98.5c27.8 65-25.9 114.3-14 262.5-2.2 53.6.8 171.2-146.6 210.6-28 7.5-19.3 48.4 22.7 58.4 67 21 117 72.3 117 97.9" fill="#fff"/><path fill-rule="evenodd" clip-rule="evenodd" d="m554 266.2.1-1.4c4.1-36.4 8.2-71.7 27.1-103.4 6.5 4.4 5.7 10 3.7 15.2-19.9 51.2-18 104.4-16.2 157.6l.4 14c2.1 66.4-14.5 126.8-58.7 177.5-15.4 17.6-35.8 29.8-56.5 40.3-21.4 11-25.9 20.1-19.2 43.6l.8 2.6c1.4 3.9 2.8 7.9-1 11.8-4.5 4.6-9.5 3.3-14.8 1.8l-.6-.1a406.4 406.4 0 0 1-137-68.3c-6-4.4-10.8-10.3-15.5-16.1l-.3-.4c-2.5-3-3-7.8.5-10.4 3.3-2.5 5.8-.5 8.7 1.8l1 .9a145.5 145.5 0 0 0 76.3 31.7c13.4 1.4 26.6.9 40 .4 7.4-.3 14.8-.6 22.3-.5 10.2 0 18.7-4.7 26.7-9.2l2.8-1.6c27.8-15.5 54.3-32.8 72.2-60.7 16.1-25 25.9-52.2 31.6-80.9 7.2-36.1 6.6-72.7 6-109.8-.3-12-.5-24.2-.5-36.4ZM50.6 190.8c21.9-1.7 34 11.2 44.3 26.3a140.4 140.4 0 0 1 22.4 61.5c.5 3.7 1 7.6-1.2 11.3-4.5.6-4.9-3-5-5.6-.5-20.7-9.7-38.7-18.9-56.1-6.6-12.5-16.2-24.6-31.4-27.6-17.2-3.5-33 12-40.8 32.2-14.5 37.6-12 74.6 1.4 111 5.8 15.9 13.1 32.1 27.8 43.2 14.8 11.3 32.7 9.3 43.6-5.7l2-2.5c2-2.6 4-5.1 5-8 2.1-5.8 5.4-11.2 11.3-10.4 6.8 1 8 8.3 8.7 14a3661 3661 0 0 0 22 156.7l5.9 38.8c2.6 17.1 5.6 41.7 3.6 52.1a28 28 0 0 0-.3 2.2c-.4 2.8-.6 5-4.2 5.5-4.9.8-7-2-7.7-6.4-2.3-17-3-23.6-4-49.6-.9-25.2-5.6-50-10.4-74.9l-5-27c-5.2-30.8-10.3-62-10.8-97l-2 3c-7.6 11.3-13.7 20.5-24.5 24a40.5 40.5 0 0 1-46.1-12.5 127.8 127.8 0 0 1-28.8-55.8c-8.4-34-9.9-67.1.9-100.6 5.2-16.1 23.7-44.7 42.2-42Zm34.6 127.5c4.4 3.2 8.4 6 12-5.4-1.1-42.2-14.7-69.2-35.8-70.3 11.2 14.6 22 28.8 23 48.5a32.3 32.3 0 0 1-10.7-8.8c-2-2.2-4-4.4-6.5-6l-3-2.4c-4.8-3.6-9.7-7.4-17.8-4.5 3.8 5.8 9 10 14.3 14 6 4.7 12 9.3 15.6 16.5-10.6 7.7-15.2 17.7-9.7 29.9 4.8 10.5 11.9 19.2 25.9 19.8-.6-6.3-4.7-10.9-8.8-15.4-5-5.4-9.7-10.6-7.5-18.6 3.2-1.5 6.2.7 9 2.7Z" fill="#000"/></g><g transform="translate(178 1057)"><path d="m1346 688-1365-3.3s11.3-97 44.2-189.1c41-115.2 106.9-232 124.6-246.1 20.8-16.8-11.6-18.2 3.4-41.2 33.4-51.1 146.5-97.5 179.3-114.1C391 64.4 496.8 46.4 496.8 46.4L524 100s63.4 21.9 138.2 24.4c40.4 1.3 134-29.5 134-29.5L784.9 37s169 34.8 252.6 85.6c48.2 29.3 108.2 75 109.7 101.2 2.1 39.8 1.7 36.7 24 51.9 53.3 36.2 98.4 122 120.8 191.2 17.5 54.2 54 221.1 54 221.1Z" fill="#fff"/><path fill-rule="evenodd" clip-rule="evenodd" d="M300.3 563.4C320.7 604 341 644.7 356 688c6.6 0 12 0 17.6-1l-4.2-11c-6.2-16.4-12.3-32.3-19.5-47.8a5867.5 5867.5 0 0 0-34.2-70.7c-9.3-19.2-18.7-38.3-27.8-57.5-3.9-8-6-16.9-1.3-25.8 6.7-12.8 12.5-26 18.3-39.2l5.2-11.8c11-24.4 24.4-47.6 37.9-70.9a972.6 972.6 0 0 0 30.5-55c8-16.3 5.5-24.5-12.1-30A48 48 0 0 0 356 265c-8.6-.7-17.2-1.2-25.8-1.7-26.3-1.5-52.7-3-78.4-10.8-7.9-2.4-16.1-3.7-24.4-5-8-1.3-16-2.6-23.7-4.9l-4.6-1.3c-14.7-4.2-29.9-8.6-41.3-20.3l1.8-2.4c1-1.3 1.8-2.5 2.7-3.5 25.4-28.7 58.7-47 92-65.1l20-11c20.1-11.5 41.2-21.4 62.2-31.4 8-3.7 15.9-7.4 23.7-11.3a391.7 391.7 0 0 1 61-24.8c10.6-3.1 21.3-5.6 32-8 7.8-1.9 15.6-3.7 23.3-5.7 20-5.3 23.7-4 28.9 15.7l9 34.2c9.6 35.4 19.1 70.8 26.7 106.6 8.7 40.7 14.4 82 17.2 123.5 1.5 23.6 4.1 47.2 6.8 70.7 3.6 32.2 7.2 64.3 8 96.7.5 20.8-.2 41.6-.9 62.4l-.8 29a434 434 0 0 1-3.3 40.2c-2 17-3.9 34-3.2 51.2 6.6 0 12.1 0 17.7-1.2l.6-16.2c.2-10.2.5-20 1.6-29.6 5.6-51 4.8-102 3.7-153-.8-33.6-3.6-67-8.4-100.2-2.5-17.6-3.5-35.2-4.5-52.8-1.3-23-2.6-46.1-7.4-69a1633 1633 0 0 1-6.6-34.2c-3.8-20.7-7.7-41.4-13-61.8-.2-1-.6-2-1-3-1.2-3-2.4-6 .6-8.9 4-3.8 9.1-2.7 14-1.4 41 11 82.7 13.9 125.1 10.6 31.5-2.4 62.6-5.8 91.5-19.5 8.6-4 15.4-1.5 17.3 9 1 5.6 1.7 11.2 2.4 16.9 1 7.9 2.1 15.8 3.8 23.4 7.8 34.8 9.9 70 12 105.2 1 16.1 2 32.2 3.4 48.3 1.2 12 2 24.2 2.8 36.3 1 14.6 2 29.1 3.6 43.7 6.3 60.7 4.7 121.5 2.7 182.3l-.7 20c-.7 18.4-1.4 36.7-1.4 55 5.7 0 10.3 0 15.3-1l.9-5.3c1-6.5 1.9-12.5 2-18.4l.3-44.7c0-28 .2-56.2 1.5-84.2 1.7-37 .7-74-3.1-111-2.7-26.2-4.5-52.4-6.3-78.7-1.7-24.1-3.4-48.3-5.7-72.4-4.5-46-10.5-92-20.4-137.3a2508 2508 0 0 1-13.8-68.7c-.5-2.4-.4-5-.4-7.4v-4c-.2-6.4 2.7-8.5 9.1-7.2a637.9 637.9 0 0 1 78.9 18.8c21 6.9 41.5 15 62 23l22 8.6a444.7 444.7 0 0 1 140.6 84.8 136 136 0 0 1 31.5 40.6c4.6 9.3-.3 19.2-9.5 21l-9.2 1.9c-22.6 4.4-45.2 9-67.3 15.7a250.5 250.5 0 0 0-92.5 50.8c-7.6 6.6-8.8 14.7-4.6 23.2 4 8 8.4 16 13.2 23.6a1769 1769 0 0 0 17.6 27.5c14.9 22.8 29.7 45.6 41.8 70 3.3 6.5 4 13-.2 18-9.4 10.8-16.8 22.9-24.2 35a360.5 360.5 0 0 1-16.9 25.7c-21 28.2-39 58.5-53.4 90.3-3.5 7.9-6.6 16-9.6 24.2-4.8 13-9.7 25.8-16.5 37.7 7.5 0 13.9 0 20.5-1a423 423 0 0 1 41.4-93c23-37.1 47.3-73.3 72-109.3 6.3-9 9.7-18.8 3.9-31-8-16.8-17.5-32.7-27-48.5l-.4-.7c-13.8-23-28.6-45.6-43.5-68-4.7-7.2-2.2-12 3-16.8a157.4 157.4 0 0 1 41.6-26.7 353.1 353.1 0 0 1 102.4-29.7c12.8-1.7 22.2.7 32 7.6 34.4 24.3 64.3 51 82.2 90.3l8.6 18.7a885 885 0 0 1 35.5 84c12.1 35.3 23.2 70.9 31.8 107.4 3.1 13.3 6 26.7 9 40 5.8 25.6 11.6 51.2 18.2 76.7 4.8 0 8.5 0 11.9-1a992 992 0 0 1-12.8-65c-4.6-27-9.3-54-16.8-80.4l-1.5-5.3c-6.6-23.2-13.2-46.4-21-69A883.4 883.4 0 0 0 1247 346c-18.1-34.7-45.6-61.4-77.4-84.9-1.5-1-3.2-1.9-5-2.8-6-3.1-12.7-6.5-9.7-16.8 5.2-17.6 1.8-33.7-13.6-46.3-3.5-3-6.5-6.3-9.6-9.7l-2.9-3.3c-41.3-45.3-95.5-72.5-151.3-97-36.3-15.9-74.3-28.1-112.2-40a328.3 328.3 0 0 0-72.7-15c-12.8-1-18 4.8-16.5 16.8.4 3 .8 6 1 9 .8 6.7 1.5 13.5 3.1 20 2.7 11.2-3.2 17.2-12 21.2a200.4 200.4 0 0 1-69.1 18.8c-52.7 3.3-105 .7-155.5-16.9-8.4-3-13.2-7.4-16.8-14.7-2.4-5-4.6-10.2-6.8-15.3-3.3-7.8-6.7-15.6-11-23-5.3-9.6-11.7-11.8-21.5-8.6-6.3 2-12.7 3.7-19.2 5C432.9 50.4 397.8 59 365 75a2335 2335 0 0 0-135.6 70.3c-30 17.2-59.8 34.8-82.3 61.3-6.2 7.3-7.5 14.5-2.6 22.2 4.3 6.5 4 11.5-2 17a139.2 139.2 0 0 0-22.6 30c-1.8 2.8-3.5 5.7-5.4 8.5-20.9 32-39.5 65.2-55.8 99.5A875.2 875.2 0 0 0 26.5 463l-1 2.8c-7.8 22-15.6 43.9-21.2 66.5-1.7 7.2-3.7 14.4-5.6 21.5a565 565 0 0 0-8.7 35.3c-6.7 32.9-12.2 66-17 98.9 6.6 0 12.1 0 18-1l7.8-46 6.3-36.6c11-63 32.5-123 56.8-182a839.1 839.1 0 0 1 90.7-160.9c4-5.6 8.9-7.2 15.6-7.8 16.3-1.5 31.5 2.9 46.6 7.2a241 241 0 0 0 23.5 6l15.6 2.8c27 5 53.8 10 81.5 11.4 2.8.2 5.7.2 8.7.2 8 0 16.4 0 25.1 3L361 298l-23.7 38.6a730.6 730.6 0 0 0-49.8 95.6c-5.9 13.2-11.7 26.3-18.1 39.1-3.8 7.6-5 14.6-1.8 22l1.3 3c6 14 11.9 27.8 18.6 41.4l12.9 25.8Zm475-452c5-2.6 10.4-5.4 11.2 3.7 1.8 10.6-5.3 14.2-11.4 17.3l-1.8 1c-17.5 9.2-36.8 14-56.6 16.2a434 434 0 0 1-144.6-5.8c-9.5-2.2-18.7-5.6-27.3-10-5.6-2.7-8-6.8-6.7-12.5 1.4-6 5.4-5 9.5-4 .7.3 1.5.5 2.3.6l19.3 3.8c16.5 3.3 33 6.6 49.7 9a291 291 0 0 0 103.5-2.9l.9-.1c18-3.8 35.8-7.5 52-16.2Z" fill="#000"/><path d="M199 688c3-35 7-69.8 11.1-104.7 3.6-29.7 4-60 17-88a38 38 0 0 1 3.8-6.7c2.3-3.1 5-6.8 9.5-5.2 5.2 1.7 3.5 6.4 2.7 9.9-7.8 32.1-13.1 64.8-17.4 97.5-4 31.5-6 63.3-9.2 96-5.6 1.2-11 1.2-17.5 1.2ZM1145.9 688c-9.8-36.3-12.8-73.7-23.3-109.7-6.2-21-9.8-42.8-17.9-63.4-1.6-4.2-.5-9 4-11.2 4.4-2.3 7.4 1.3 9.9 4.3a55.2 55.2 0 0 1 9.9 22.1c11.5 43.4 20.8 87.4 27.6 131.7 1.2 8 1.2 16 1.9 25.2-3.5 1-7.3 1-12.1 1Z" fill="#000"/></g><g transform="translate(266 207)"><path d="M426.5 269.7c41.9-29.9 86-54 136-62.5 30.9-5.3 62.8-2.1 94 4.5a189.2 189.2 0 0 1 58.3 21c16 9.5 34.5 11 51.4 18 39.6 16.2 63.8 47 85.4 82 20.5 33.1 35.1 69.5 57.6 101.4 14 20 31 37 46.7 55.4a183 183 0 0 1 44.8 94A93 93 0 0 1 986 648c-25.5 38.1-24.4 79.2-19 121.5 4.8 37.8-3.6 72-28.5 101a75.6 75.6 0 0 1-44.8 24.8 145.1 145.1 0 0 0-58.8 21.8c-27 18.3-58.6 16-87.9 10.4-30.5-6-59.7-19-87.6-33.4a93.8 93.8 0 0 1-41.4-39.8c-4.2-8.4-11.5-9-18.4-11.8-8.2-3.3-18.5-2.5-24-12.4 13.7 4 27.6 5.8 41.5 7.1 45.7 4.5 90.6 4.6 128.8-27 15.7-13 24.5-31 34.7-48 18.8-31.4 36.3-63.7 41-100.5 3.9-29 7-58.3 3-87.7-.3-1.7-.6-3.4-.6-5.1 1.6-34.7-6.4-68.4-10-102.5A232.5 232.5 0 0 0 775 360c-3.5-5.3-7.4-10.2-11.7-16C749 377 724 395.5 692 408.4c-30.3 12.1-62 8.7-92.7 14.4-19.4 3.6-40.2 1-58 12-23.8 14.6-41.9 55.5-34.3 82 5.7 19.5 14.7 37.7 18 58.1 6 39.3-.5 74-30.2 102.7-5 4.8-10.4 9.7-16.5 11.6-16 4.8-18.6 16.5-19.1 30.5-1.4 42.7-22.2 75-58.1 95.2-38.5 21.6-79.7 26-121.9 7.2-27.7-12.3-58.4-13.2-87.6-20.4-28-6.9-57.5-11.7-77.8-34.3a87.4 87.4 0 0 1-22.5-51.7c-2.2-26.8-1.9-52.8 6.4-79.2 14.7-46.4 47.4-76.7 86.2-102 31-20.1 60-42.1 84-70.7a465.7 465.7 0 0 0 50-71.7c22.8-40.8 54-74.5 88.6-105.4 6.4-5.6 12.2-11.7 20-17Z" fill="#000"/></g><g transform="translate(791 871)"><path d="M203 92.2c5.7-4 7-10.6 8.7-16.5 2-7-1.7-13-8.8-12-8.2 1-16.6 1.4-24.6 5a65 65 0 0 1-54 1.2c-8.1-3.7-16.7-6-25.5-7.1C86 61.3 80.5 67 81 79.5c.4 10.9 10.2 19.6 23.5 20.1 32 1.3 63.1-12.1 95.4-6 .4.1.8-.3 3-1.4Z" fill="#fff"/><path fill-rule="evenodd" clip-rule="evenodd" d="M123.6 54.3c-10-5.3-20.7-10.8-34-7.2C68.1 55.6 62.4 69.3 68.5 90c6.2 21 36.6 27.8 55.7 24.8 5.5-.8 11-2.3 16.6-3.8 13.8-3.6 27.6-7.2 42-1.8 13.1 5 23.4-.7 33-8 11-8.3 15.3-33 8.6-44.5-4.8-8.1-21.5-13-32.4-9a125 125 0 0 0-20.8 9.5c-14.3 8.6-27.5 7.1-42.1 0l-5.5-2.8ZM211 77.8c-1.5 5.4-3 11-8.1 14.4a62.1 62.1 0 0 0-3 1.4c-18.4-3.5-36.5-.6-54.6 2.3a208 208 0 0 1-40.8 3.7c-13.3-.5-23-9.2-23.5-20C80.5 67 86 61.2 98.8 62.7c8.8 1 17.4 3.4 25.5 7a65 65 0 0 0 54-1.1c6.6-3 13.4-3.7 20.2-4.5l4.4-.5c7.1-1 10.8 5 8.8 12l-.6 2.1Z" fill="#000"/></g><g transform="translate(653 805)"></g><g transform="translate(901 668)"><path d="M99.8 182.6c-8.7 16.5-33.4 25.7-48.5 18.9-4.3-2-6.2-5.8-7-10-.5-2.7.9-5.3 3.3-6.5 4.6-2 5.8 2.3 8.6 4.8 7 6 13 .7 19-3.4 5.8-4 9.1-8.5 4.3-14.7-10.5-13.1-14.8-29.2-21.8-44-3.1-6.5-5-13.5-3.8-21 .5-3.3 1.9-5.5 5.6-5.6 2.8 0 5 .8 5.9 3.8 7.5 26.3 23.3 48.6 34.6 73.1.5 1 0 2.5-.2 4.6Z" fill="#000"/></g><g transform="translate(610 680)"><path d="M407.4 122.5c13 .3 25.4 1.1 37.6 2.5 3 .4 5 3.3 5 6.7 0 3.3-1.7 5.6-4.7 7-11.2 4.8-22 8.2-33.7.2-6.5-4.5-9-8.7-4.2-16.4ZM247.6 117c7 0 7.8 3.8 7 8.5-2 10.2-20 22.4-30.4 20.5-5.9-1-10.5-4-10.7-10.5-.2-6.7 4.8-8.2 10.3-8.4 9-.3 15.8-5.2 23.8-10ZM215.1 76.6c5-12 9-29.4 24.1-22.5 20.7 9.4 13.9 30.7 9.7 47.4-1.6 6.3-14.5 15.9-18.3 14.3-16.3-6.8-19.2-21.7-15.5-39.2ZM442 113.4c-8.6 7.5-17 7.6-22.2-1.5-9-16-8.6-32.8 3.3-47.2 2.5-3 13.8-3.6 16.3-1 14 15 14.6 31.8 2.6 49.7Z" fill="#000"/></g><g transform="translate(610 680)"><path d="M266 18.1A80.2 80.2 0 0 1 301 62.8c15.8-3 30.7-5.8 46.4 2.2a97.5 97.5 0 0 1 19.8-34.7C382.8 14 418 2 443.5 10.5c26.2 8.8 44.9 26.2 52.7 51.2a75.5 75.5 0 0 1-11.3 67.8c-35.8 51-110.3 37.5-132.4-14-3.6-8.2-5.7-16.9-6.3-25.8-.6-10.5-5.3-15.8-15-17.3-11.9-1.8-21.2 1.8-25.4 13.9-3.3 9.1-3.2 19-7.4 28.2-13.3 29-37.9 47.4-71.8 47.1-28.5-.2-61.4-18-69-48.8-8.4-34-35.5-41.3-62.4-50.6-22.8-7.9-45.5-16-68.2-24-4.7-1.7-7.3-5.4-5.5-10 2.2-5.7 6.8-3.4 10.8-2C66.4 38.8 100.7 51 134.7 63.8c11.8 4.4 18.5-3.2 22.6-10.7 23.3-42.4 58.4-55.5 103-37.2 1.7.6 3.3 1.2 5.7 2.3Z" fill="#000"/></g><g transform="translate(774 657)"><path d="M57.5 41.8C51.3 41.3 46 41 41 41c-5.7-.2-8.5-3.4-9-8.8-.5-5.3 3-7 7.5-8.5 8.6-3 17.1-.5 25.2.7 15.4 2.1 31.5-.6 46.4 6.3 5 2.3 8.3 4.7 6.4 10.3-1.8 5.2-6.1 5.2-10.6 4.1-16-3.7-32.4.9-49.4-3.3ZM251.8 32c17.2.9 33.1-5 49.3-1.2 4 1 9 .7 8.8 7 0 6.2-4.7 7.4-9.5 8-19 2.2-38 4-56.9 6.4-5.7.7-11 .1-12.6-5.6-1.7-5.7 4-7.8 8-10 3.5-2.1 7.8-3.1 12.9-4.7Z" fill="#000"/></g><g transform="translate(0 559)"><path d="M1372.2 1194h-130s14.1-33.2.2-56.2c-22.2-36.3-61.3-59.2-93.3-84-23-17.9-47-63-44-111.8 1.6-25.8 4.5-46.5 17.8-48s24.8 8.5 28.5 35.5c3.7 27 10.8 78.1 47 78.1 20 0 40.2-30.4 36.1-59.6-4-29.2-22.9-65.8-38.4-74.7-15.5-8.8-43.9-.5-58.4-1-14.6-.7-17.3-11-8.1-30 14.2-29.6 63.5-34 82.4-24.8 18.8 9.3 35 36.6 42 32.2 7.1-4.5-25.4-102.4-32.4-114.2-7-11.8-26.2-60.9-7.4-66.4 18.9-5.6 46.5 41 54.7 58.6 8.1 17.8 41.4 96.1 41.4 96.1s18.3-45.7 4-102.3c-3.8-15.3-13.3-60.6 1.9-60.6 15.1 0 38 56.9 41.7 68.7 3.7 11.8 11.8 80 14.4 107 2.6 27 7.8 62 7.8 62s24-52.5 27.6-68.7c6.3-28.4-6-70.4 13.2-73 34.5-4.6 32.3 94.9 22.1 130.2-8 27.8-34 124.8-51.5 153.9-14.5 24-19.7 70.7-18.7 96.7s-.6 56.4-.6 56.4Z" fill="#fff"/><path d="M1237.4 1194c-1-2.9-2-6.2-1-8.7 11-28.7-1.1-49.2-21-69.1-15.5-15.5-33.2-27.9-50.3-41-23.3-18-46-37.5-53.8-65.7-10.5-37.5-22.4-76.7 2.3-114.3 8.6-13.2 21-14 30.8-1.4 12.2 15.8 13.8 35.5 18.2 54 4.2 17.3 12.6 32.4 20.8 47.6 3.5 6.4 9.2 8.5 17.3 4.7 16.4-7.5 24.8-18 25.2-37.2.5-24.2-3-46.2-17-66.5-11.8-17.3-20-21-40.2-17.4-16 2.8-32.5 8.3-46.6-6.8-5.3-5.6-6.3-10.3-4.2-17 14.6-46.1 86.1-62.9 119.5-28 4 4.1 9 7.5 13 10.8-6.2-28.3-11.7-58-27-84.7-9.6-16.7-16-34.8-22.5-52.8-3.2-8.8-3.8-18.6 1.9-27 9.8-15 24.5-14.8 39.5-.3a160.1 160.1 0 0 1 37 59c8.4 21.7 19.2 42.5 25.4 65.1 1.5 5.7 4.1 11.2 4.8 17.3 2.4-19.1 6-38.3 3.2-57.6-3.3-21.8-6-43.8-7.8-65.8-1.3-14.4 3.6-69 32-23.7 12.3 21 22.5 43.2 30.4 66.3 8.7 26.4 13.6 114.5 13.6 158 0 24.6 26-127.2 26.3-128.3 2.5-6.9 6.9-11.8 14.3-13 7.3-1.2 11 3.2 15.6 8.5 13.4 15.3 11 58.9 12.5 76.6 6.2 72.7-32.3 150.2-60.3 228.2-21.5 60.1-6.5 129.6-7 130.2-3.5 4-10.5 0-17.1-1.1a826.6 826.6 0 0 1-1.3-76.7c.7-18.2 4-36.7 11.4-53.4 11.5-26 20.5-53 30.5-79.4a840.5 840.5 0 0 0 33-119.8c7.6-35-6.6-64.9-12.3-97.6-5.9 2.6-7 6-7.2 9.3-.7 12-3 23.6-3.6 35.6-1.8 36.9-9.5 72.3-31.8 103-1.9 2.7-2 7.1-6.8 6-4.5-1-5.6-5-5.6-9 0-31.5-8.9-62.3-8-93.8 1.2-37-7.5-71.7-21.7-105.3a160.3 160.3 0 0 0-21.4-39c-1.1 8.1-1.5 16.3-1.2 24.5.3 3.8.9 7.6 1.8 11.3 11.3 55.5 5.4 111-.5 166.4-.4 4.3-1 10.7-7.2 10.5-7.5-.1-6.6-7-6-11.7 2.6-20.1-4.3-38.6-10.3-56.9a775.8 775.8 0 0 0-36.5-90.9c-7.5-15.8-15.8-31-28.8-43-3.7-3.6-8.2-7.5-13.5-4-4.8 3-5.1 8.8-3.7 14 2.3 8 4.3 16.3 8 24a949.3 949.3 0 0 1 23 52.4c16.3 40.9 19.2 85.1 31 127.2 2 7 .6 13.5-8.2 16-4-4.7-6.6-10.1-6.4-15.4.2-10-4.6-17.8-9.3-25.8-11-18.9-25.2-34.9-44.6-45.8-22-12.3-52-3.5-73 22-2.5 3-7 6-4.8 11 2.3 5.2 7.1 7 12.5 7.3 9.4.5 18.8-.2 27.8-3.4 10-3.6 19-1.4 27.9 3.9 39.7 23.3 58.3 95.4 28 135.9-13.4 17.8-41.3 14.9-53 2-19.4-21.4-25.8-47.8-30.1-75.1-1.6-10.4-3.3-20.7-13.2-28-8.7 10-14 20.1-13.4 33 .5 10.6-.3 21.3.2 32 2 35 14.7 64.9 43.6 86.5 15.6 11.7 31.8 22.7 46.5 35.3 14 12.2 30 22.9 40.2 38.8 13.5 21 7 44.6 7 67.2h-16.8Z" fill="#000"/></g></g></svg>